<?xml version="1.0" standalone="no"?>
<!DOCTYPE svg PUBLIC "-//W3C//DTD SVG 20010904//EN"
 "http://www.w3.org/TR/2001/REC-SVG-20010904/DTD/svg10.dtd">
<svg version="1.0" xmlns="http://www.w3.org/2000/svg"
 width="500.000000pt" height="500.000000pt" viewBox="0 0 500.000000 500.000000"
 preserveAspectRatio="xMidYMid meet">
<metadata>
Created by potrace 1.11, written by Peter Selinger 2001-2013
</metadata>
<g transform="translate(0.000000,500.000000) scale(0.100000,-0.100000)"
fill="#000000" stroke="none">
<path d="M2350 4497 c-3 -3 -37 -8 -76 -11 -39 -4 -82 -9 -95 -11 -13 -3 -40
-8 -59 -11 -170 -30 -447 -131 -595 -217 -343 -199 -609 -471 -786 -802 -121
-226 -186 -428 -224 -700 -12 -87 -13 -409 -1 -485 3 -19 8 -53 11 -76 26
-182 97 -400 193 -589 121 -241 291 -453 505 -631 92 -78 229 -174 247 -174 5
0 10 -4 10 -10 0 -5 6 -10 14 -10 7 0 19 -7 26 -15 7 -8 19 -15 26 -15 8 0 31
-11 52 -24 51 -32 247 -109 357 -140 309 -87 665 -97 982 -27 720 158 1310
726 1496 1441 24 93 31 124 42 205 4 22 8 51 10 65 3 14 7 62 11 107 l6 83
-376 0 c-351 0 -376 -1 -377 -17 0 -18 -2 -35 -14 -123 -34 -253 -174 -521
-372 -711 -245 -235 -543 -351 -888 -345 -337 7 -615 125 -856 366 -184 183
-291 381 -344 635 -20 93 -28 325 -15 405 5 30 12 72 15 94 22 142 135 384
245 521 106 133 284 280 410 337 19 9 60 28 91 42 138 63 320 95 509 91 201
-4 353 -42 535 -132 127 -64 205 -121 320 -237 221 -222 345 -498 364 -813 1
-10 83 -13 377 -13 l376 0 -6 78 c-16 214 -57 396 -141 622 -27 74 -124 256
-185 348 -135 206 -294 369 -535 550 -20 15 -145 92 -149 92 -2 0 -31 15 -64
34 -149 84 -419 173 -612 202 -19 3 -46 8 -60 10 -32 7 -394 16 -400 11z"/>
</g>
</svg>
