<?xml version="1.0" standalone="no"?>
<!DOCTYPE svg PUBLIC "-//W3C//DTD SVG 20010904//EN"
 "http://www.w3.org/TR/2001/REC-SVG-20010904/DTD/svg10.dtd">
<svg version="1.0" xmlns="http://www.w3.org/2000/svg"
 width="500.000000pt" height="500.000000pt" viewBox="0 0 500.000000 500.000000"
 preserveAspectRatio="xMidYMid meet">
<metadata>
Created by potrace 1.11, written by Peter Selinger 2001-2013
</metadata>
<g transform="translate(0.000000,500.000000) scale(0.100000,-0.100000)"
fill="#000000" stroke="none">
<path d="M2340 4747 c-3 -3 -40 -8 -84 -11 -43 -3 -81 -8 -85 -10 -3 -2 -31
-7 -61 -11 -30 -4 -105 -20 -167 -36 -487 -126 -912 -405 -1220 -799 -216
-277 -381 -649 -438 -985 -3 -16 -7 -43 -10 -60 -20 -121 -27 -454 -12 -580
34 -281 108 -527 230 -770 344 -680 1007 -1139 1767 -1223 82 -9 394 -9 480 0
56 6 143 21 255 43 134 26 359 107 509 182 444 222 799 581 1016 1028 101 206
170 424 200 625 6 41 14 86 17 100 2 14 6 113 8 220 3 222 -11 357 -60 580
-13 56 -62 210 -92 285 -290 735 -962 1275 -1733 1395 -41 6 -86 14 -100 17
-33 6 -414 15 -420 10z m345 -1273 c369 -73 666 -343 769 -698 31 -107 39
-165 39 -291 0 -606 -551 -1074 -1152 -978 -588 94 -971 689 -806 1256 32 111
65 183 131 285 161 247 446 418 734 439 47 3 86 7 87 8 8 6 128 -7 198 -21z"/>
</g>
</svg>
